<svg id="_x31_px" enable-background="new 0 0 24 24" height="200" viewBox="0 0 24 24" width="100" xmlns="http://www.w3.org/2000/svg"><g><path d="m20.568 7.766c-.204 0-.396-.126-.47-.329-.095-.259.039-.546.299-.641.627-.229 1.128-.688 1.411-1.292.282-.605.312-1.284.083-1.912-.229-.627-.688-1.128-1.292-1.41-.606-.282-1.284-.312-1.911-.084-.259.094-.546-.039-.641-.299-.095-.259.039-.546.299-.641.878-.319 1.828-.278 2.676.117.848.396 1.49 1.097 1.81 1.975s.278 1.829-.117 2.676c-.395.848-1.097 1.49-1.975 1.81-.057.02-.115.03-.172.03z"/></g><g><path d="m17.237 10.309c-.204 0-.396-.126-.47-.329l-2.907-7.987c-.095-.259.039-.546.299-.641.259-.095.546.04.641.299l2.907 7.987c.095.259-.039.546-.299.641-.056.02-.114.03-.171.03z"/></g><g><path d="m2.798 12.574c-.216 0-.431-.047-.633-.141-.363-.169-.638-.47-.775-.847l-.342-.94c-.282-.777.12-1.64.896-1.922l2.82-1.026c.258-.094.546.039.64.299l1.026 2.819c.095.259-.039.546-.299.641l-2.819 1.026c-.167.061-.341.091-.514.091zm1.837-3.765-2.35.855c-.259.094-.393.382-.298.641l.342.94c.046.125.138.226.259.282.121.057.256.063.382.017l2.349-.855z"/></g><g><path d="m7.245 13.087c-.615 0-1.194-.383-1.415-.984l-1.71-4.701c-.265-.736.085-1.56.796-1.877l11.868-5.389c.011-.005.093-.04.105-.044.376-.137.786-.12 1.151.05s.643.471.78.848l2.39 6.581c.138.377.12.785-.051 1.147-.169.361-.471.636-.847.773-.018.006-.055.017-.083.024-.008.003-.016.005-.024.007l-5.17 1.44c-.267.074-.542-.081-.616-.347s.081-.542.347-.615l5.17-1.44c.027-.008.053-.015.073-.02.221-.084.356-.371.262-.628l-2.39-6.581c-.046-.125-.139-.226-.262-.284-.124-.057-.26-.063-.387-.017l-11.905 5.406c-.243.108-.356.377-.266.626l1.709 4.698c.09.243.356.377.605.31l4.521-1.26c.266-.077.542.082.616.347.074.266-.081.542-.347.616l-4.52 1.26c-.134.036-.268.054-.4.054z"/></g><g><path d="m13.5 13c-1.103 0-2-.897-2-2s.897-2 2-2 2 .897 2 2-.897 2-2 2zm0-3c-.551 0-1 .449-1 1s.449 1 1 1 1-.449 1-1-.449-1-1-1z"/></g><g><path d="m13.5 24c-.276 0-.5-.224-.5-.5v-6c0-.276.224-.5.5-.5s.5.224.5.5v6c0 .276-.224.5-.5.5z"/></g><g><path d="m7.82 24h-1.32c-.276 0-.5-.224-.5-.5s.224-.5.5-.5h1.32c.204 0 .391-.126.465-.313l4.191-10.482c.103-.257.394-.381.65-.279s.381.394.279.65l-4.19 10.48c-.223.564-.784.944-1.395.944z"/></g><g><path d="m20.5 24h-1.32c-.611 0-1.172-.38-1.396-.946l-4.189-10.478c-.103-.256.022-.547.279-.65.255-.102.547.021.65.279l4.19 10.48c.075.189.262.315.466.315h1.32c.276 0 .5.224.5.5s-.224.5-.5.5z"/></g><g><path d="m16.75 20h-6.5c-.276 0-.5-.224-.5-.5s.224-.5.5-.5h6.5c.276 0 .5.224.5.5s-.224.5-.5.5z"/></g><g><path d="m10.49 12.22c-.204 0-.396-.126-.47-.329l-2.56-7.02c-.094-.259.04-.546.299-.641.26-.093.546.04.641.299l2.56 7.02c.095.259-.039.546-.298.641-.057.02-.115.03-.172.03z"/></g></svg>